<svg xmlns="http://www.w3.org/2000/svg" width="141.336" height="19.752" viewBox="0 0 141.336 19.752"><path d="M5.664-1.9c-.528.024-1.008.1-1.512.168.144-2.616.36-5.016.36-7.536a49.441,49.441,0,0,0-.384-5.784,3.556,3.556,0,0,0,2.328-2.136,1.444,1.444,0,0,0-1.272-.024,7.057,7.057,0,0,1-1.776.672,3.4,3.4,0,0,0-1.968-.84c-.912,0-1.7.216-1.7,1.008a1.665,1.665,0,0,0,1.8,1.656c.192,0,.456-.024.576-.024a50.239,50.239,0,0,1,.36,5.448c0,2.616-.192,5.088-.408,7.728l.048.048a3.562,3.562,0,0,1-1.56-.432C.36-2.04.288-2.04.288-2.16v-.072c-.24.1-.384.5-.384.936A1.17,1.17,0,0,0,.408-.24,3.441,3.441,0,0,0,2.16.192L4.032,0,4.08.024V0l.888-.1a3.293,3.293,0,0,1,.96.12A2.4,2.4,0,0,0,6.144-1.2a2.006,2.006,0,0,0-.072-.624.278.278,0,0,0-.24-.1A.356.356,0,0,0,5.664-1.9ZM8.856-6.624c-.072-.36-.144-1.392-.816-1.392-.84,0-.912.72-1.128,1.68a15.468,15.468,0,0,0-.264,2.88A16.8,16.8,0,0,0,6.936-.432c.168.552.408.7.768.672.792-.024.84-.816.84-1.776C8.52-4.9,9.72-5.736,10.9-6.5c0,.624.36,6,1.608,5.952a.67.67,0,0,0,.624-.336c.48-1.368.912-4.824,2.088-5.3a9.93,9.93,0,0,0-.072,1.536c0,1.056.024,2.328.048,2.736.024.312.12,2.352,1.416,2.28.72-.024.408-6.264.36-7.2A1.428,1.428,0,0,0,15.7-8.088c-1.872,0-2.736,2.328-3.048,3.168-.048-.312-.072-1.032-.1-1.8-.048-.936-.168-1.872-.816-1.872C10.392-8.592,9-6.864,8.856-6.624ZM21.864-9.072l-.072.288L20.64-7.368a33.326,33.326,0,0,0-1.8,3.384h-.792a1.476,1.476,0,0,1-.336-.024l-.048.456a.827.827,0,0,1,.72.864,4.484,4.484,0,0,0-.672,2.064A1.52,1.52,0,0,0,18.168.552a4.7,4.7,0,0,0,.48.072.831.831,0,0,0,.576-.192l.264-.7c.336-.888.5-1.824.864-1.944.024-.024.072-.024.144-.024.192,0,.48.024,1.32.024h.768l.1,1.392c.264.624.624,1.128,1.08,1.128A.484.484,0,0,0,24.024.24,5.423,5.423,0,0,0,24.1-1.1a33.248,33.248,0,0,0-.48-5.112,19.927,19.927,0,0,0-.648-2.232c-.048-.336-.384-.744-.7-.744h-.144C22.008-9.192,21.936-9.192,21.864-9.072ZM21-4.1c.168-.576.7-1.968,1.032-2.064A5.025,5.025,0,0,1,22.368-4.1a6.744,6.744,0,0,1-.7.024A6.288,6.288,0,0,1,21-4.1ZM31.176-6.192a2.51,2.51,0,0,0,.288-1.08c0-.816-.6-1.2-1.8-1.2A5.681,5.681,0,0,0,24.7-3.192c0,2.16.936,3.264,3.36,3.264,2.76,0,4.368-1.2,4.368-3.384A1.6,1.6,0,0,0,30.7-4.872c-1.056,0-3.24.048-3.24,1.584,0,.384.024.576.552.744A1.644,1.644,0,0,1,29.5-3.552c.408,0,1.128.024,1.128.336,0,1.56-1.776,1.7-2.352,1.7-1.3,0-1.872-.576-1.872-1.632a3.489,3.489,0,0,1,2.976-3.432,3.156,3.156,0,0,1,.648-.12c.216,0,.288.1.288.192a1.581,1.581,0,0,1-.216.624,1.84,1.84,0,0,0,1.032-.264Zm7.2-8.568c-.144-.528-.984-.936-2.04-.936-2.28,0-4.656,2.112-4.656,3.7a2.41,2.41,0,0,0,.624,1.44,2.425,2.425,0,0,0-.072.408c.048.528.36.984.6,1.032.36-.048.456-.312.72-.624a5.234,5.234,0,0,0,1.512.216c1.584,0,4.752-2.112,4.752-3.96a1.417,1.417,0,0,0-1.344-1.3C38.424-14.784,38.4-14.76,38.376-14.76ZM34.2-8.16c-.1,0-.12.048-.144.168-.312,2.424-.384,3.744-.408,4.08-.048,1.272-.072,1.3-.072,2.52.024.24.168,1.176.48,1.272a2.249,2.249,0,0,0,.672.144c.6,0,.744-.456.744-.84,0-1.92-.192-3.96-.24-5.9C35.184-7.632,35.064-8.136,34.2-8.16Zm.1-2.976c.984-1.344,2.352-2.688,3.744-2.688.624,0,.624.264.624.6,0,1.464-2.448,2.28-3.648,2.28h-.528C34.416-10.944,34.3-11.088,34.3-11.136ZM32.856-12a2.432,2.432,0,0,1,2.04-2.064.155.155,0,0,1,.048.12v.024A22.787,22.787,0,0,0,33.072-12a.183.183,0,0,1-.12.048A.125.125,0,0,1,32.856-12ZM41.3-8.856l.072.288c.6,2.256,1.056,2.9,1.056,5.112,0,.408,0,.624-.144.624-.024,0-.072-.1-.168-.192-1.272-1.584-2.712-4.584-3.432-4.584-1.032,0-1.656,4.416-1.656,5.664,0,.576.168,1.9.936,1.9.528,0,.648-.792.72-1.128.12-.744.168-3.264.24-3.552.048-.192.12-.264.168-.264.336,0,1.8,4.464,3.192,4.464,1.176,0,1.848-1.752,1.848-3.216,0-3.336-1.92-5.712-2.592-5.712-.216,0-.24.312-.24.5Zm7.68-.216-.072.288L47.76-7.368a33.326,33.326,0,0,0-1.8,3.384h-.792a1.476,1.476,0,0,1-.336-.024l-.048.456a.827.827,0,0,1,.72.864,4.484,4.484,0,0,0-.672,2.064A1.52,1.52,0,0,0,45.288.552a4.7,4.7,0,0,0,.48.072.831.831,0,0,0,.576-.192l.264-.7c.336-.888.5-1.824.864-1.944.024-.024.072-.024.144-.024.192,0,.48.024,1.32.024H49.7l.1,1.392c.264.624.624,1.128,1.08,1.128A.484.484,0,0,0,51.144.24,5.422,5.422,0,0,0,51.216-1.1a33.248,33.248,0,0,0-.48-5.112,19.927,19.927,0,0,0-.648-2.232c-.048-.336-.384-.744-.7-.744h-.144C49.128-9.192,49.056-9.192,48.984-9.072ZM48.12-4.1c.168-.576.7-1.968,1.032-2.064A5.025,5.025,0,0,1,49.488-4.1a6.744,6.744,0,0,1-.7.024A6.288,6.288,0,0,1,48.12-4.1Zm7.824,6.24C55.92,1.344,55.9.432,55.9-.5a19.527,19.527,0,0,1,.48-4.872h.144c.84,0,2.784-.24,2.784-1.608,0-1.752-1.008-1.944-1.656-1.944-1.176,0-1.872,1.032-2.3,1.44A4.872,4.872,0,0,1,52.728-8.52c-.168-.144.024-.744-.288-.744-.36.12-.48.744-.48,1.056,0,.936.864,1.7,2.5,2.352A16.167,16.167,0,0,0,53.64-.84a4.859,4.859,0,0,0,.432,2.424,1.919,1.919,0,0,0,1.2.792A.78.78,0,0,0,55.944,2.136ZM56.88-7.32a1.092,1.092,0,0,1,1.128-.936.374.374,0,0,1,.36.384c0,.312-.72.6-1.1.6A1.865,1.865,0,0,1,56.88-7.32Zm8.448-7.44c-.144-.528-.984-.936-2.04-.936-2.28,0-4.656,2.112-4.656,3.7a2.41,2.41,0,0,0,.624,1.44,2.425,2.425,0,0,0-.072.408c.048.528.36.984.6,1.032.36-.048.456-.312.72-.624a5.234,5.234,0,0,0,1.512.216c1.584,0,4.752-2.112,4.752-3.96a1.417,1.417,0,0,0-1.344-1.3C65.376-14.784,65.352-14.76,65.328-14.76Zm-4.176,6.6c-.1,0-.12.048-.144.168-.312,2.424-.384,3.744-.408,4.08-.048,1.272-.072,1.3-.072,2.52.024.24.168,1.176.48,1.272a2.249,2.249,0,0,0,.672.144c.6,0,.744-.456.744-.84,0-1.92-.192-3.96-.24-5.9C62.136-7.632,62.016-8.136,61.152-8.16Zm.1-2.976c.984-1.344,2.352-2.688,3.744-2.688.624,0,.624.264.624.6,0,1.464-2.448,2.28-3.648,2.28H61.44C61.368-10.944,61.248-11.088,61.248-11.136ZM59.808-12a2.432,2.432,0,0,1,2.04-2.064.155.155,0,0,1,.048.12v.024A22.787,22.787,0,0,0,60.024-12a.183.183,0,0,1-.12.048A.125.125,0,0,1,59.808-12ZM64.728-.936v.048A2.96,2.96,0,0,0,65.448.7a2.182,2.182,0,0,0,.672-.768c2.88-.12,6.048-2.088,6.048-5.04a2.793,2.793,0,0,0-.72-1.92,2.959,2.959,0,0,0-1.632-.456h-.024c.216-.024.5-.12.5-.312,0-.144-.216-.312-.6-.48a3.637,3.637,0,0,0-1.272-.192,4.563,4.563,0,0,0-4.608,4.464A5.913,5.913,0,0,0,64.728-.936Zm5.136-5.088c.576,0,.96.264.96.768,0,1.68-2.4,3.144-3.672,3.144H66.84C67.728-4.488,68.592-6.024,69.864-6.024ZM68.616-7.272c-1.344.408-2.28,1.848-3.312,4.488a2.477,2.477,0,0,1-.1-.72,3.7,3.7,0,0,1,2.9-3.648,9.682,9.682,0,0,1,1.056-.264A4.675,4.675,0,0,0,68.616-7.272Zm.672-.168a.216.216,0,0,0-.12.024A.216.216,0,0,1,69.288-7.44Zm7.68-1.416.072.288c.6,2.256,1.056,2.9,1.056,5.112,0,.408,0,.624-.144.624-.024,0-.072-.1-.168-.192-1.272-1.584-2.712-4.584-3.432-4.584-1.032,0-1.656,4.416-1.656,5.664,0,.576.168,1.9.936,1.9.528,0,.648-.792.72-1.128.12-.744.168-3.264.24-3.552.048-.192.12-.264.168-.264.336,0,1.8,4.464,3.192,4.464,1.176,0,1.848-1.752,1.848-3.216,0-3.336-1.92-5.712-2.592-5.712-.216,0-.24.312-.24.5Zm19.752,4.1A5.42,5.42,0,0,0,91.8-6.96c-1.848,0-4.176.912-4.176,3.216,0,2.952,4.92,4.512,7.272,4.512,2.112,0,7.056-1.512,7.056-5.784,0-7.752-11.376-3.144-11.376-7.152,0-2.5,3.48-3.24,5.5-3.24s3.48.552,3.6.888a.3.3,0,0,1,.024.144,1.954,1.954,0,0,1-.5.96c-.024.024-.024.024-.024.048a.052.052,0,0,0,.048.048l.144.024c.576,0,1.776-.72,1.776-1.536a.76.76,0,0,0-.1-.384,4.306,4.306,0,0,0-4.1-2.16c-4.224,0-8.568,1.752-8.568,5.3,0,5.712,11.472,1.056,11.472,6.48,0,1.488-1.224,4.56-5.856,4.56-1.008,0-5.52-.816-5.52-2.808,0-1.56,1.44-1.92,2.568-1.92a5.572,5.572,0,0,1,3.96,1.68.835.835,0,0,0,.5.144C96.024-3.936,96.72-4.272,96.72-4.752Zm11.616,3.216c0-.312-.312-.72-.6-.72-.24,0-.552.024-.792.048-1.536.144-2.448.384-2.568.384a9.286,9.286,0,0,0,.576-1.608c.048-.1.1-.1.144-.1,1.2,0,2.28-.048,2.712-.072.216-.024.264-.384.264-.576a1.346,1.346,0,0,0-.144-.7l-.336-.048h-1.776a.218.218,0,0,1-.216-.24,1.47,1.47,0,0,1,.288-1.008,1.816,1.816,0,0,1,.36-.024c.648-.024.888,0,1.92-.072.456-.024,1.3-.288,1.3-.528,0-.408-.552-.912-.768-1.176a3.383,3.383,0,0,0-.984-.168,35.836,35.836,0,0,0-4.152.48c-.408.024-.624.1-.624.36,0,.5.816.816,1.368,1.08l-.576,1.32a2.694,2.694,0,0,0-.624.192,1.761,1.761,0,0,0-.12.48,2.076,2.076,0,0,0,.192.624,7.545,7.545,0,0,0-.6,2.04A1.86,1.86,0,0,0,104.5.456a6.551,6.551,0,0,0,3.7-1.632A.388.388,0,0,0,108.336-1.536Zm2.712-5.328a12.91,12.91,0,0,1,1.3-.312c1.128,0,3.216.312,3.216,2.16a2.06,2.06,0,0,1-.528,1.152,3.724,3.724,0,0,0-1.536-.312c-.6,0-1.344.432-1.344.888a1.218,1.218,0,0,0,1.3,1.224,5.343,5.343,0,0,0,1.344-.192C115.7-1.1,116.856.528,116.928.624a.308.308,0,0,0,.24.1.839.839,0,0,0,.72-.84.848.848,0,0,0-.1-.408A14.931,14.931,0,0,0,116.232-3a2.47,2.47,0,0,0,1.056-1.944c0-2.328-1.68-3.6-4.56-3.6-.648,0-2.16.576-2.16,1.152C110.568-7.224,110.712-7.032,111.048-6.864ZM111.72-.5a36.324,36.324,0,0,1,.72-5.928c0-.288-.288-.408-.624-.408-.408,0-.888.168-.984.528a15.084,15.084,0,0,0-.888,5.232A1.182,1.182,0,0,0,111.1.072.606.606,0,0,0,111.72-.5Zm1.7-2.256c-.168,0-.408-.1-.408-.336,0-.144.168-.24.456-.264.312,0,.384.048.672.336A1.158,1.158,0,0,1,113.424-2.76Zm5.112-5.76a1.612,1.612,0,0,0-.552,1.2v.168c.384.912,1.656,4.248,1.9,5.016l.552,1.968a2.981,2.981,0,0,0,.888.144,2.454,2.454,0,0,0,1.2-.288,3.835,3.835,0,0,0,.552-.96l2.184-4.92a4.015,4.015,0,0,0,.528-1.656c0-.312-.648-.72-.96-.72-.072,0-.1,0-.12.024-.336.168-.528.648-.816,1.224l-2.256,4.944a1.258,1.258,0,0,1-.24-.48l-1.176-3.912A16,16,0,0,0,119.4-8.52ZM131.52-1.536c0-.312-.312-.72-.6-.72-.24,0-.552.024-.792.048-1.536.144-2.448.384-2.568.384a9.285,9.285,0,0,0,.576-1.608c.048-.1.1-.1.144-.1,1.2,0,2.28-.048,2.712-.072.216-.024.264-.384.264-.576a1.347,1.347,0,0,0-.144-.7l-.336-.048H129a.218.218,0,0,1-.216-.24,1.47,1.47,0,0,1,.288-1.008,1.816,1.816,0,0,1,.36-.024c.648-.024.888,0,1.92-.072.456-.024,1.3-.288,1.3-.528,0-.408-.552-.912-.768-1.176a3.382,3.382,0,0,0-.984-.168,35.836,35.836,0,0,0-4.152.48c-.408.024-.624.1-.624.36,0,.5.816.816,1.368,1.08l-.576,1.32a2.694,2.694,0,0,0-.624.192,1.761,1.761,0,0,0-.12.48,2.076,2.076,0,0,0,.192.624,7.545,7.545,0,0,0-.6,2.04A1.86,1.86,0,0,0,127.68.456a6.551,6.551,0,0,0,3.7-1.632A.388.388,0,0,0,131.52-1.536Zm2.712-5.328a12.909,12.909,0,0,1,1.3-.312c1.128,0,3.216.312,3.216,2.16a2.059,2.059,0,0,1-.528,1.152,3.724,3.724,0,0,0-1.536-.312c-.6,0-1.344.432-1.344.888a1.218,1.218,0,0,0,1.3,1.224,5.343,5.343,0,0,0,1.344-.192c.912,1.152,2.064,2.784,2.136,2.88a.308.308,0,0,0,.24.1.839.839,0,0,0,.72-.84.848.848,0,0,0-.1-.408A14.931,14.931,0,0,0,139.416-3a2.47,2.47,0,0,0,1.056-1.944c0-2.328-1.68-3.6-4.56-3.6-.648,0-2.16.576-2.16,1.152C133.752-7.224,133.9-7.032,134.232-6.864ZM134.9-.5a36.323,36.323,0,0,1,.72-5.928c0-.288-.288-.408-.624-.408-.408,0-.888.168-.984.528a15.084,15.084,0,0,0-.888,5.232A1.182,1.182,0,0,0,134.28.072.606.606,0,0,0,134.9-.5Zm1.7-2.256c-.168,0-.408-.1-.408-.336,0-.144.168-.24.456-.264.312,0,.384.048.672.336A1.158,1.158,0,0,1,136.608-2.76Z" transform="translate(0.264 17.376)" fill="#fff"/></svg>